<?xml version="1.0" encoding="UTF-8"?>
<svg id="Layer_2" data-name="Layer 2" xmlns="http://www.w3.org/2000/svg" viewBox="0 0 241.18 314.66">
  <g id="Layer_1-2" data-name="Layer 1">
    <g>
      <path d="M116.42,140.76c-3.14,2.17-6.18,4.47-9.44,6.48-3.81,2.35-7.77,4.48-11.76,6.54-.36,.19-1.48-1.22-2.07-1.1-8.39,1.72-14.12-.72-17.86-7.79-2.15-4.06-4.51-8.06-6.26-12.27-.53-1.27,.69-3.18,1.07-4.81,.11-.45,.08-.93,.12-1.4-1.14,.22-2.29,.43-3.42,.7-.18,.04-.27,.41-.4,.63-.21-.27-.59-.54-.6-.81-.08-2.87-.58-5.83,.02-8.57,.55-2.52,1.81-5.24,3.63-7.1,3.86-3.94,8.09-7.63,12.57-10.94,3.16-2.33,6.88-4.03,10.55-5.6,1.17-.5,3.02,.16,4.46,.58,4.28,1.24,8.69,2.27,12.7,4.08,2.27,1.03,4.36,3.16,5.6,5.28,2.28,3.91,3.92,8.16,5.73,12.3,.37,.84,.59,1.88,.42,2.75-1.11,5.84-2.25,11.68-3.65,17.46-.17,.72-1.94,1.08-2.97,1.61,.51,.66,1.02,1.33,1.53,1.99Zm-19.89-17.7c-.65-.95-1.33-1.95-2-2.95-.76,.73-2.29,1.73-2.13,2.15,.42,1.13,1.57,2.02,2.43,3,.54-.7,1.08-1.39,1.71-2.2Z"/>
      <g>
        <path d="M207.47,188.43c-1.86,4.15-2.77,9.51-5.84,12.12-2.98,2.53-8.15,2.92-12.4,3.1-18.76,.77-37.54,1.03-56.31,1.68-6.16,.21-12.3,1.02-18.43,1.72-.17,.02-.48,2.12-.13,2.99,2.24,5.44,4.43,10.93,7.07,16.17,2.34,4.62,5.46,8.81,7.85,13.41,4.93,9.44,9.41,19.14,14.46,28.51,2.27,4.21,5.32,7.99,8.24,11.76,4.5,5.8,1.43,10.51-1.61,15.4-2.8,4.51-7.41,6.7-10.68,2.86-8.1-9.52-15.55-19.73-22.43-30.26-6.7-10.26-12.41-21.23-18.44-31.96-1.01-1.79-1.31-4-2.16-5.9-.14-.31-1.92-.38-2.14-.02-7.13,11.65-14.4,23.22-21.12,35.12-3.85,6.82-6.29,14.54-10.35,21.21-2.51,4.12-6.85,7.04-10.45,10.42-.12,.11-.97-.86-1.55-.99-1.13-.25-2.49,.1-3.42-.44-1.4-.81-2.76-1.97-3.71-3.31-4.12-5.85-3.11-12.72-1.4-18.64,1.78-6.16,5.86-11.6,8.97-17.34,3.94-7.27,7.84-14.58,11.91-21.77,3.17-5.59,6.72-10.96,9.8-16.6,.67-1.22,.2-3.2,0-4.79-.04-.32-1.33-.71-2.01-.65-10.61,.86-21.22,1.68-31.81,2.75-5.73,.58-11.41,2.21-17.12,2.25-5.46,.04-10.93-1.4-16.41-2.07-1.05-.13-3.08,.57-3.11,.44-2.14-8.15-5.12-16.73,.33-24.26,1.71-2.36,6.85-1.95,10.36-3.02,2.19-.67,4.2-2.08,6.41-2.55,1.85-.39,3.87,.2,5.82,.21,6.94,.05,13.89,.23,20.82-.02,6.06-.21,12.12-.76,18.14-1.49,3.64-.44,7.18-1.73,10.81-2.26,7.06-1.04,14.13-2.07,21.23-2.63,10.99-.86,22-1.38,33.01-1.94,7.74-.4,15.49-.75,23.24-.89,4.96-.09,9.93,.49,14.88,.32,6.24-.22,12.46-.97,18.7-1.33,3.41-.2,7.97-1.52,10.03,.21,3.78,3.18,12.22,3.09,10.94,12.48Zm-3.17,.4c.43-.91,.79-1.31,.72-1.62-.1-.45-.49-.83-.76-1.25-.21,.29-.6,.59-.59,.88,.01,.48,.28,.95,.63,1.99Z"/>
        <path d="M217.27,303.35c-.49-11.65-.97-23.3-1.49-34.94-.49-11.01-1.04-22.02-1.54-33.04-.51-11.26-.93-22.52-1.51-33.78-.3-5.82-1.14-11.62-1.28-17.43-.24-10.66-.02-21.34-.25-32-.09-4.25-1.23-8.47-1.26-12.71-.05-6.29,.57-12.58,.73-18.88,.29-11.35,.25-22.71,.72-34.05,.43-10.14,1.23-20.26,2.11-30.37,1.04-11.93,2.18-23.85,3.58-35.74,.6-5.14,1.68-10.28,3.1-15.24,.56-1.96,2.64-3.45,4.03-5.16,1.2,1.56,2.58,3,3.57,4.69,1.53,2.63,2.82,5.43,4.14,8.19,.18,.38,.15,1.24-.09,1.41-1.18,.85-2.42,1.64-3.73,2.25-.69,.32-1.56,.23-2.35,.33,.59,1.05,.95,2.56,1.82,3.05,2.76,1.54,6.35,2.05,8.39,4.21,1.56,1.65,1.58,5.19,1.7,7.92,.15,3.43-.29,6.88-.48,10.32-.68,12.48-1.5,24.96-2,37.46-.3,7.29,.05,14.61-.17,21.9-.33,10.7-1.39,21.4-1.27,32.08,.11,9.61,1.49,19.2,2.12,28.82,.54,8.28,.84,16.58,1.17,24.87,.59,15.06,.99,30.12,1.71,45.17,.41,8.6,1.48,17.17,1.88,25.77,.2,4.19-.74,8.42-.62,12.62,.16,5.6,1.3,11.2,1.18,16.78-.13,6.05-2.07,12.14-1.69,18.11,.47,7.47-3.74,9.12-8.79,8.62-6.92-.69-13.37-3.55-13.42-11.23ZM229.46,12.21c-.56-.88-1.09-1.73-1.62-2.57-.24,.31-.74,.73-.67,.93,.41,1.11,.95,2.17,1.45,3.24,.24-.45,.48-.9,.85-1.6Z"/>
        <path d="M233.41,12.88c.28-.52,.53-.99,.79-1.46,.42,.53,1.19,1.07,1.17,1.58-.02,.51-.82,.99-1.28,1.48-.21-.49-.42-.99-.67-1.6Z"/>
      </g>
    </g>
  </g>
</svg>